<?xml version="1.0" encoding="UTF-8"?>
<svg id="_Шар_2" data-name="Шар 2" xmlns="http://www.w3.org/2000/svg" viewBox="0 0 916.26 288.97">
  <defs>
    <style>
      .cls-1 {
        fill: #1d1d1b;
      }
    </style>
  </defs>
  <g id="_ар_1" data-name=" ар 1">
    <g>
      <path class="cls-1" d="M5.29,257.47l-5.29,31.5H33.22c-2.51-3.65-5.25-7.2-8.26-10.6-6.34-7.17-12.97-14.06-19.67-20.9Z"/>
      <path class="cls-1" d="M101.55,59.11c28.36,7.6,52.5,13.49,73.43,27.08-16.54-24.08-35.11-43.4-73.43-27.08Z"/>
      <path class="cls-1" d="M42.94,151.91c-5.78,3.48-.11,9.53-3.75,13.17-6.14-5.34-11.34-10.49-15.73-15.73l-6.81,40.49c5.68,4.59,11.56,8.98,17.56,13.23,24.4,17.39,50.25,33.13,69.73,56.68,7.57,9.18,13.14,19.04,16.75,29.22h24.71c-3.65-19.64-13.18-37.52-27.02-54.11-24.03-28.74-55.98-50.15-75.46-82.95h.02Z"/>
      <path class="cls-1" d="M55.63,268.9c3.32,6.76,6.36,13.45,9.04,20.07h16.24c-6.79-7.1-15.02-13.67-25.28-20.07Z"/>
      <path class="cls-1" d="M347.25,0H135.31c9.95,10.54,23.55,17.65,30.99,29.46,22.53,35.91,57.69,58.55,87.98,88.47-12.74,8.67-26.55,.59-38.16,6.15-.05,9.04,7.22,10.17,13.49,12.52,7.55,2.94,20.07,1.18,18.14,14.45-1.61,11.13-7.55,23.07-19.32,23.98-27.35,2.09-55.93,7.92-78.73-16.27-15.2-16.11-15.47-18.89,4.55-27.72,2.3-1.02,4.39-2.57,8.83-5.24-9.9-5.57-18.73-3.21-26.87-3.8-18.52-1.45-36.5-3.16-51.32-16.91-31.04-28.85-30.34-48.65,3.64-73.43-19.14-3.84-37.75,2.85-48.36,18.25l-6.54,38.92c1.1,3.88,2.6,7.76,4.6,11.65,5.73,11.13,14.82,19.53,23.28,28.47,13.54,14.4,28.63,27.4,39.6,44.15,3.16,4.82,5.19,13.06,10.06-.16,2.14-5.78,6.85,2.73,9.26,5.51,24.35,28.04,38.05,57.75,44.58,96.55,12.2-10.76,9.26-24.89,10.22-38.37,12.42,12.65,14.97,31.58,9.28,52.34h106.88l120.61-148.94L347.25,0Zm-118.35,210.34c-1.62,12.36-6,23.5-16.33,34.39-7.67-23.56-25.3-33.16-50.75-36.58,18.87-19.47,39.27-14.94,58.39-13.8,8.19,.49,9.66,8.62,8.69,15.98h0Z"/>
    </g>
    <circle class="cls-1" cx="370.52" cy="256.19" r="32.78"/>
    <g>
      <path class="cls-1" d="M464.05,96.96c0-47.42,35.96-77.54,79.79-77.54,31.24,0,50.79,15.73,62.03,33.49l-26.51,14.38c-6.74-10.56-19.55-19.55-35.5-19.55-27.19,0-46.97,20.9-46.97,49.22s19.78,49.22,46.97,49.22c13.26,0,25.85-5.85,31.92-11.46v-17.98h-39.56v-27.87h71.47v57.53c-15.29,17.08-36.63,28.32-63.82,28.32-43.83,0-79.79-30.57-79.79-77.76h-.02Z"/>
      <path class="cls-1" d="M633.07,171.8V21.9h78.89c28.54,0,43.15,18.2,43.15,38.21,0,18.88-11.69,31.46-25.85,34.39,15.95,2.47,28.76,17.98,28.76,36.85,0,22.47-15.06,40.45-43.6,40.45h-81.36Zm89.45-106.08c0-9.44-6.74-16.41-17.54-16.41h-40v32.59h40c10.78,0,17.54-6.74,17.54-16.19Zm2.92,61.13c0-9.44-6.74-17.53-19.33-17.53h-41.13v34.84h41.13c12.13,0,19.33-6.52,19.33-17.3h0Z"/>
      <path class="cls-1" d="M885.46,171.8l-71.46-97.77v97.77h-31.92V21.9h32.81l69.45,94.17V21.9h31.92V171.8h-30.8Z"/>
    </g>
    <g>
      <path class="cls-1" d="M471.02,286.43v-84.92h10.57v84.92h-10.57Z"/>
      <path class="cls-1" d="M542.57,286.43v-40.23c0-5.43-1.25-9.17-3.76-11.2-2.5-2.04-5.84-3.06-9.99-3.06-1.87,0-3.69,.25-5.47,.76-1.78,.51-3.48,1.21-5.09,2.1-1.61,.89-3.08,1.91-4.39,3.06-1.32,1.15-2.4,2.36-3.25,3.63v44.94h-9.55v-61.49h9.55v8.91c1.1-1.27,2.42-2.52,3.95-3.76,1.53-1.23,3.25-2.36,5.16-3.37,1.91-1.02,3.95-1.82,6.11-2.42,2.16-.59,4.39-.89,6.68-.89,13.07,0,19.61,6.62,19.61,19.86v43.16h-9.55Z"/>
      <path class="cls-1" d="M587.64,286.43l-25.59-61.49h10.31l20.5,50.42,20.37-50.42h10.44l-25.59,61.49h-10.44Z"/>
      <path class="cls-1" d="M661.35,287.95c-4.58,0-8.79-.79-12.6-2.36-3.82-1.57-7.11-3.78-9.87-6.62-2.76-2.84-4.92-6.24-6.49-10.19-1.57-3.95-2.36-8.34-2.36-13.18,0-4.41,.76-8.59,2.3-12.54,1.53-3.95,3.64-7.36,6.32-10.25,2.68-2.88,5.87-5.18,9.57-6.87,3.7-1.7,7.76-2.55,12.18-2.55,4.68,0,8.85,.85,12.5,2.55,3.66,1.7,6.76,4.03,9.31,7,2.55,2.97,4.49,6.47,5.81,10.5,1.32,4.03,1.98,8.34,1.98,12.92v2.42h-49.91c.17,2.89,.8,5.62,1.91,8.21,1.1,2.59,2.61,4.84,4.52,6.75,1.91,1.91,4.18,3.44,6.81,4.58,2.63,1.15,5.6,1.72,8.91,1.72,3.56,0,7-.68,10.31-2.04,3.31-1.36,6.19-3.27,8.66-5.73l4.58,6.24c-3.06,3.06-6.62,5.39-10.69,7s-8.66,2.42-13.75,2.42Zm19.1-36.16c0-2.29-.4-4.65-1.21-7.07-.81-2.42-2.04-4.63-3.69-6.62-1.66-1.99-3.76-3.63-6.3-4.9-2.55-1.27-5.56-1.91-9.04-1.91s-6.2,.64-8.66,1.91c-2.46,1.27-4.52,2.89-6.17,4.84-1.66,1.95-2.93,4.14-3.82,6.56-.89,2.42-1.38,4.82-1.46,7.19h40.36Z"/>
      <path class="cls-1" d="M724.75,287.95c-5.09,0-9.72-.79-13.88-2.36-4.16-1.57-7.81-4.01-10.95-7.32l4.97-6.88c2.04,2.38,4.86,4.44,8.47,6.18,3.61,1.74,7.53,2.61,11.78,2.61,4.75,0,8.36-1,10.82-2.99,2.46-1.99,3.69-4.52,3.69-7.58,0-2.46-.93-4.35-2.8-5.67-1.87-1.31-4.22-2.4-7.07-3.25-2.84-.85-5.9-1.63-9.17-2.36-3.27-.72-6.32-1.74-9.17-3.06-2.84-1.31-5.2-3.06-7.07-5.22-1.87-2.16-2.8-5.16-2.8-8.98,0-2.38,.51-4.65,1.53-6.81,1.02-2.16,2.5-4.05,4.46-5.67,1.95-1.61,4.35-2.88,7.19-3.82,2.84-.93,6.09-1.4,9.74-1.4,5.26,0,9.76,.87,13.5,2.61,3.73,1.74,6.83,3.84,9.29,6.3l-4.46,6.62c-1.87-2.21-4.39-4.05-7.58-5.54-3.18-1.48-6.77-2.23-10.76-2.23-4.24,0-7.57,.93-9.99,2.8-2.42,1.87-3.63,4.16-3.63,6.88,0,2.21,.93,3.9,2.8,5.09,1.87,1.19,4.22,2.19,7.07,2.99,2.84,.81,5.9,1.57,9.17,2.29,3.27,.72,6.32,1.76,9.17,3.12,2.84,1.36,5.2,3.2,7.07,5.54,1.87,2.34,2.8,5.5,2.8,9.48,0,2.55-.51,4.97-1.53,7.26-1.02,2.29-2.55,4.27-4.58,5.92-2.04,1.65-4.56,2.97-7.58,3.95-3.01,.98-6.52,1.46-10.5,1.46Z"/>
      <path class="cls-1" d="M780.01,287.95c-4.58,0-8-1.25-10.25-3.75-2.25-2.5-3.37-6.03-3.37-10.61v-40.14h-10.18v-8.53h10.18v-16.81h9.55v16.81h12.48v8.53h-12.48v38.09c0,2.29,.51,4.17,1.53,5.65,1.02,1.48,2.59,2.22,4.71,2.22,1.36,0,2.61-.25,3.76-.76,1.15-.51,2.06-1.1,2.74-1.78l2.8,7.13c-1.19,1.19-2.7,2.14-4.52,2.86-1.83,.72-4.14,1.08-6.94,1.08Z"/>
      <path class="cls-1" d="M806.99,287.7c-1.95,0-3.61-.68-4.97-2.04-1.36-1.36-2.04-3.01-2.04-4.97s.68-3.61,2.04-4.97c1.36-1.36,3.01-2.04,4.97-2.04s3.61,.68,4.97,2.04c1.36,1.36,2.04,3.01,2.04,4.97s-.68,3.61-2.04,4.97c-1.36,1.36-3.01,2.04-4.97,2.04Z"/>
    </g>
  </g>
</svg>