<svg width="157" height="46" viewBox="0 0 157 46" fill="none" xmlns="http://www.w3.org/2000/svg">
<path d="M0.831869 40.7769L0 45.7657H5.22395C4.82925 45.1876 4.39837 44.6254 3.92504 44.0869C2.92805 42.9513 1.88547 41.8601 0.831869 40.7769Z" fill="#2B2E35"/>
<path d="M15.9691 9.36167C20.4288 10.5653 24.2249 11.4981 27.5162 13.6505C24.9152 9.8368 21.9951 6.77699 15.9691 9.36167Z" fill="#2B2E35"/>
<path d="M6.75247 24.0588C5.84355 24.6099 6.73518 25.5681 6.16277 26.1446C5.19724 25.2988 4.37952 24.4832 3.68918 23.6533L2.61829 30.0659C3.51148 30.7929 4.43613 31.4881 5.37965 32.1612C9.21663 34.9154 13.2816 37.4082 16.3449 41.1379C17.5353 42.5918 18.4112 44.1534 18.9789 45.7656H22.8646C22.2907 42.6551 20.792 39.8234 18.6157 37.196C14.8369 32.6443 9.81262 29.2535 6.74933 24.0588H6.75247Z" fill="#2B2E35"/>
<path d="M8.74805 42.5869C9.27013 43.6575 9.74818 44.7171 10.1696 45.7655H12.7234C11.6557 44.641 10.3615 43.6005 8.74805 42.5869Z" fill="#2B2E35"/>
<path d="M54.6062 0H21.278C22.8426 1.66927 24.9813 2.79532 26.1512 4.66573C29.6941 10.353 35.2232 13.9386 39.9864 18.6772C37.983 20.0503 35.8113 18.7706 33.9856 19.6512C33.9777 21.0829 35.121 21.2618 36.1069 21.634C37.2942 22.0996 39.263 21.8209 38.9595 23.9225C38.7063 25.6852 37.7722 27.5762 35.9214 27.7204C31.6205 28.0514 27.1262 28.9747 23.5408 25.1436C21.1506 22.5922 21.1081 22.1519 24.2563 20.7534C24.618 20.5919 24.9467 20.3464 25.6449 19.9236C24.0881 19.0414 22.6995 19.4152 21.4195 19.3217C18.5072 19.0921 15.6797 18.8213 13.3493 16.6436C8.46811 12.0745 8.57819 8.93868 13.9217 5.01415C10.9118 4.40599 7.98534 5.46552 6.31689 7.90449L5.28845 14.0684C5.46143 14.6829 5.69731 15.2974 6.01182 15.9135C6.91288 17.6762 8.34231 19.0066 9.67267 20.4224C11.8019 22.703 14.1748 24.7619 15.8999 27.4147C16.3968 28.1781 16.716 29.4831 17.4819 27.3894C17.8184 26.474 18.559 27.8217 18.938 28.262C22.7671 32.7028 24.9215 37.4082 25.9484 43.5531C27.8669 41.849 27.4045 39.6112 27.5555 37.4763C29.5086 39.4797 29.9096 42.4777 29.0148 45.7656H45.822L64.7883 22.1772L54.6062 0ZM35.9953 33.3126C35.7405 35.2701 35.0518 37.0344 33.4273 38.7591C32.2212 35.0278 29.4488 33.5074 25.4467 32.9657C28.4141 29.8822 31.6221 30.5996 34.6288 30.7802C35.9167 30.8578 36.1478 32.1454 35.9953 33.311V33.3126Z" fill="#2B2E35"/>
<path d="M58.2655 45.7659C61.1124 45.7659 63.4202 43.4415 63.4202 40.5743C63.4202 37.7071 61.1124 35.3828 58.2655 35.3828C55.4186 35.3828 53.1107 37.7071 53.1107 40.5743C53.1107 43.4415 55.4186 45.7659 58.2655 45.7659Z" fill="#2B2E35"/>
<path d="M72.9733 16.3382C72.9733 9.55499 78.0809 5.24561 84.3065 5.24561C88.7442 5.24561 91.5213 7.49611 93.1174 10.0364L89.3512 12.0937C88.3935 10.5828 86.5741 9.29684 84.3081 9.29684C80.4459 9.29684 77.6358 12.287 77.6358 16.3382C77.6358 20.3894 80.4459 23.3795 84.3081 23.3795C86.192 23.3795 87.9799 22.5433 88.8417 21.7404V19.1683H83.223V15.182H93.3753V23.4128C91.2036 25.8565 88.1718 27.464 84.3097 27.464C78.084 27.464 72.9764 23.0913 72.9764 16.3398L72.9733 16.3382Z" fill="#2B2E35"/>
<path d="M96.9811 27.0445V5.60059H108.187C112.241 5.60059 114.317 8.20427 114.317 11.0661C114.317 13.7664 112.656 15.5671 110.645 15.9852C112.911 16.3384 114.73 18.5572 114.73 21.2575C114.73 24.4725 112.592 27.0445 108.538 27.0445H96.9811ZM109.687 11.8691C109.687 10.5181 108.729 9.52195 107.196 9.52195H101.515V14.1845H107.196C108.728 14.1845 109.687 13.22 109.687 11.8691ZM110.102 20.6145C110.102 19.2636 109.145 18.1075 107.357 18.1075H101.515V23.0915H107.357C109.08 23.0915 110.102 22.1587 110.102 20.6161V20.6145Z" fill="#2B2E35"/>
<path d="M132.832 27.0445L122.681 13.0585V27.0445H118.147V5.60059H122.808L132.673 19.072V5.60059H137.206V27.0445H132.833H132.832Z" fill="#2B2E35"/>
<path d="M84.0502 39.963L83.1287 39.5765C82.9164 40.2734 82.4368 41.5499 81.6694 42.7108C81.1127 42.1311 80.556 41.5119 79.9601 40.834C79.4993 40.3114 78.8656 39.5955 78.3089 38.8037C79.9601 37.9136 81.6316 37.0425 81.6316 35.1088C81.6316 33.5424 80.5183 32.6714 78.9426 32.6714C77.2522 32.6714 75.8888 33.9099 75.8888 35.6124C75.8888 36.5405 76.3118 37.5668 76.9455 38.5724C75.4469 39.4039 74.0835 40.4302 74.0835 42.4795C74.0835 44.8013 75.8322 46.0002 77.9441 46.0002C79.5764 46.0002 80.7872 45.2654 81.7087 44.2201C82.3031 44.8187 82.8991 45.381 83.341 45.7674H84.8396C83.8992 44.9169 83.1114 44.1615 82.3629 43.4076C83.1318 42.2863 83.6492 40.9892 84.0534 39.9646L84.0502 39.963ZM78.9599 33.5219C79.9019 33.5219 80.6315 34.0825 80.6315 35.1468C80.6315 36.5975 79.3059 37.3134 77.8466 38.0878C77.3276 37.2563 76.9628 36.3853 76.9628 35.6314C76.9628 34.3929 77.8654 33.5234 78.9599 33.5234V33.5219ZM78.0195 45.1086C76.5398 45.1086 75.1953 44.1805 75.1953 42.4194C75.1953 40.891 76.1938 40.02 77.4236 39.2851C77.9614 40.0596 78.5762 40.8134 79.1518 41.4707C79.5166 41.9347 80.2651 42.7282 81.053 43.5407C80.2651 44.4497 79.2666 45.107 78.018 45.107L78.0195 45.1086Z" fill="#2B2E35"/>
<path d="M91.9412 32.8628H87.1387V45.7656H88.2332V40.4078H91.9396C94.3786 40.4078 95.8002 38.6672 95.8002 36.6353C95.8002 34.6033 94.399 32.8628 91.9396 32.8628H91.9412ZM91.8264 39.4005H88.2347V33.8685H91.8264C93.5357 33.8685 94.6491 35.0104 94.6491 36.6353C94.6491 38.2602 93.5357 39.4005 91.8264 39.4005Z" fill="#2B2E35"/>
<path d="M101.581 36.1904C100.044 36.1904 98.9689 36.7131 98.008 37.7568L98.5647 38.4536C99.4092 37.4859 100.312 37.0805 101.485 37.0805C102.848 37.0805 103.962 37.8359 103.962 39.2281V41.1238C103.155 40.2147 102.098 39.7887 100.812 39.7887C99.1985 39.7887 97.5662 40.853 97.5662 42.8834C97.5662 44.9137 99.2173 45.9986 100.812 45.9986C102.1 45.9986 103.136 45.5726 103.962 44.6635V45.7658H104.96V39.1885C104.96 37.0995 103.462 36.1904 101.579 36.1904H101.581ZM103.963 43.9286C103.311 44.7791 102.273 45.2051 101.159 45.2051C99.6419 45.2051 98.6245 44.2185 98.6245 42.9039C98.6245 41.5894 99.6435 40.5822 101.159 40.5822C102.273 40.5822 103.311 41.0082 103.963 41.8777V43.9286Z" fill="#2B2E35"/>
<path d="M109.069 38.0275V36.4216H108.071V45.7657H109.069V38.9572C109.492 38.1447 110.76 37.2943 111.7 37.2943C111.892 37.2943 112.026 37.2943 112.2 37.3323V36.23C110.912 36.23 109.857 36.9854 109.069 38.0291V38.0275Z" fill="#2B2E35"/>
<path d="M116.328 45.0879C115.675 45.0879 115.367 44.5653 115.367 43.8114V37.3117H117.249V36.4217H115.367V33.8687H114.35V36.4217H112.813V37.3117H114.35V43.9666C114.35 45.2431 114.944 45.9986 116.174 45.9986C116.943 45.9986 117.385 45.7658 117.75 45.4189L117.366 44.6445C117.155 44.8773 116.771 45.0895 116.328 45.0895V45.0879Z" fill="#2B2E35"/>
<path d="M123.78 36.1904C122.436 36.1904 121.11 37.0219 120.439 37.8344V36.4217H119.44V45.7658H120.439V38.7054C121.033 37.855 122.263 37.0995 123.453 37.0995C124.798 37.0995 125.7 37.6411 125.7 39.4403V45.7658H126.699V39.2281C126.699 37.1201 125.661 36.1904 123.779 36.1904H123.78Z" fill="#2B2E35"/>
<path d="M133.747 36.1905C131.173 36.1905 129.29 38.3761 129.29 41.0843C129.29 43.9668 131.21 45.9971 133.918 45.9971C135.455 45.9971 136.626 45.4555 137.549 44.4878L137.03 43.8306C136.243 44.681 135.167 45.1261 133.995 45.1261C131.806 45.1261 130.462 43.4441 130.366 41.4122H138.126V41.1413C138.126 38.4331 136.571 36.189 133.747 36.189V36.1905ZM130.366 40.6203C130.443 38.9954 131.538 37.0616 133.727 37.0616C136.051 37.0616 137.089 39.035 137.107 40.6203H130.366Z" fill="#2B2E35"/>
<path d="M141.696 38.0275V36.4216H140.698V45.7657H141.696V38.9572C142.119 38.1447 143.387 37.2943 144.327 37.2943C144.519 37.2943 144.654 37.2943 144.827 37.3323V36.23C143.541 36.23 142.484 36.9854 141.696 38.0291V38.0275Z" fill="#2B2E35"/>
<path d="M147.187 38.7434C147.187 37.7758 148.051 37.0409 149.493 37.0409C150.722 37.0409 151.721 37.5445 152.259 38.2794L152.815 37.5635C152.144 36.8081 151.087 36.1904 149.493 36.1904C147.4 36.1904 146.189 37.3513 146.189 38.783C146.189 42.1485 152.046 40.6978 152.046 43.2524C152.046 44.3357 151.125 45.1481 149.57 45.1481C148.263 45.1481 147.168 44.5289 146.574 43.775L145.978 44.5099C146.9 45.5551 148.052 46.0002 149.551 46.0002C151.875 46.0002 153.028 44.7617 153.028 43.2539C153.028 39.6557 147.189 41.0874 147.189 38.7466L147.187 38.7434Z" fill="#2B2E35"/>
<path d="M156.156 44.2563C155.695 44.2563 155.291 44.6428 155.291 45.0878C155.291 45.5328 155.695 45.9383 156.156 45.9383C156.616 45.9383 157 45.5519 157 45.0878C157 44.6238 156.616 44.2563 156.156 44.2563Z" fill="#2B2E35"/>
</svg>
